<svg width="295" height="97" viewBox="0 0 295 97" fill="none" xmlns="http://www.w3.org/2000/svg">
<g clip-path="url(#clip0_33_964)">
<path d="M49.3467 18.2736V77.6722C38.6315 57.7535 19.8067 52.2322 0 48.0633C20.4872 45.0701 38.8597 38.9804 49.3467 18.2736Z" fill="white"/>
<path d="M93.2065 50.5096C74.1191 61.397 61.6597 76.6644 54.1401 96.2213C53.7396 86.4924 52.581 76.7376 54.2736 67.1293C55.9231 57.7621 63.8432 51.203 73.6238 50.5785C79.7738 50.1866 85.9669 50.5053 93.2065 50.5053V50.5096Z" fill="white"/>
<path d="M93.2065 45.7118C74.1191 34.8286 61.6597 19.5612 54.1401 0C53.7396 9.72893 52.581 19.4837 54.2736 29.092C55.9231 38.4592 63.8432 45.0184 73.6238 45.6429C79.7738 46.0348 85.9669 45.7161 93.2065 45.7161V45.7118Z" fill="white"/>
</g>
<path d="M131.131 69.1471C129.075 69.1471 127.105 68.8996 125.22 68.4047C123.336 67.8908 121.613 67.1389 120.052 66.1491C118.51 65.1402 117.235 63.8934 116.226 62.4087C115.217 60.9049 114.599 59.1537 114.37 57.155H121.566C121.87 58.5445 122.47 59.7152 123.364 60.667C124.278 61.6187 125.43 62.342 126.819 62.837C128.209 63.3319 129.76 63.5793 131.473 63.5793C132.996 63.5793 134.414 63.3509 135.728 62.8941C137.041 62.4372 138.107 61.7615 138.926 60.8668C139.744 59.9531 140.153 58.8301 140.153 57.4976C140.153 55.9938 139.62 54.8232 138.554 53.9856C137.508 53.129 136.004 52.4533 134.043 51.9584L125.963 50.0454C123.869 49.5695 122.041 48.8747 120.481 47.961C118.939 47.0473 117.74 45.8481 116.883 44.3634C116.026 42.8596 115.598 41.0227 115.598 38.8527C115.598 36.3781 116.274 34.2367 117.625 32.4283C118.996 30.62 120.852 29.2304 123.193 28.2597C125.534 27.2698 128.171 26.7749 131.102 26.7749C134.452 26.7749 137.279 27.3364 139.582 28.4595C141.886 29.5636 143.637 31.0483 144.836 32.9137C146.035 34.7792 146.644 36.8255 146.663 39.0526H139.639C139.487 37.3965 139.002 36.0926 138.183 35.1409C137.365 34.1701 136.327 33.4658 135.071 33.028C133.815 32.5901 132.425 32.3712 130.902 32.3712C128.199 32.3712 126.191 32.9518 124.878 34.113C123.564 35.2741 122.908 36.6351 122.908 38.196C122.908 39.6617 123.393 40.8228 124.364 41.6794C125.335 42.536 126.819 43.2022 128.818 43.6781L136.499 45.4769C139.068 46.0099 141.134 46.8284 142.695 47.9325C144.255 49.0365 145.388 50.3499 146.092 51.8727C146.816 53.3765 147.177 55.0421 147.177 56.8694C147.177 59.2679 146.492 61.3903 145.122 63.2367C143.77 65.0831 141.895 66.5298 139.497 67.5767C137.098 68.6236 134.31 69.1471 131.131 69.1471ZM154.181 77.77V39.0526H161.119L161.176 43.7067C161.557 43.0595 162.042 42.4218 162.632 41.7936C163.242 41.1655 163.936 40.6039 164.717 40.109C165.516 39.6141 166.401 39.2239 167.372 38.9384C168.343 38.6338 169.409 38.4815 170.57 38.4815C172.835 38.4815 174.843 39.024 176.595 40.109C178.346 41.175 179.716 42.8215 180.706 45.0486C181.715 47.2757 182.22 50.0929 182.22 53.5002C182.22 56.9837 181.706 59.8865 180.678 62.2088C179.65 64.5311 178.213 66.2728 176.366 67.4339C174.52 68.576 172.378 69.1471 169.942 69.1471C168.819 69.1471 167.791 68.9948 166.858 68.6903C165.945 68.3857 165.126 67.9669 164.403 67.4339C163.679 66.901 163.042 66.3204 162.49 65.6922C161.957 65.0641 161.509 64.4074 161.148 63.7221V77.77H154.181ZM168.4 63.9505C170.494 63.9505 172.226 63.1225 173.597 61.4664C174.967 59.7913 175.652 57.174 175.652 53.6144C175.652 50.5307 175.005 48.1038 173.711 46.3335C172.435 44.5442 170.665 43.6496 168.4 43.6496C165.964 43.6496 164.136 44.5918 162.918 46.4763C161.7 48.3417 161.091 50.7211 161.091 53.6144C161.091 55.4799 161.357 57.2026 161.89 58.7825C162.442 60.3434 163.251 61.5997 164.317 62.5514C165.402 63.4842 166.763 63.9505 168.4 63.9505ZM196.792 69.1471C194.907 69.1471 193.213 68.8045 191.709 68.1192C190.225 67.4149 189.054 66.4156 188.197 65.1212C187.36 63.8078 186.941 62.2183 186.941 60.3529C186.941 57.0979 188.112 54.6423 190.453 52.9863C192.813 51.3302 196.563 50.4641 201.703 50.388L206.128 50.2738V48.2751C206.128 46.7142 205.662 45.496 204.729 44.6203C203.816 43.7257 202.388 43.2879 200.446 43.3069C199 43.326 197.686 43.6686 196.506 44.3348C195.326 44.982 194.546 46.0765 194.165 47.6184H188.254C188.369 45.6007 188.949 43.916 189.996 42.5645C191.062 41.194 192.518 40.1756 194.365 39.5094C196.211 38.8241 198.343 38.4815 200.76 38.4815C203.578 38.4815 205.871 38.8527 207.642 39.5951C209.412 40.3374 210.716 41.4129 211.553 42.8215C212.391 44.2111 212.81 45.8957 212.81 47.8753V68.576H206.956L206.385 63.2652C205.338 65.4924 203.996 67.0342 202.359 67.8908C200.741 68.7283 198.886 69.1471 196.792 69.1471ZM199.047 64.4359C199.904 64.4359 200.751 64.2836 201.589 63.9791C202.426 63.6555 203.178 63.2272 203.844 62.6942C204.529 62.1422 205.072 61.5331 205.472 60.8668C205.89 60.2006 206.109 59.5058 206.128 58.7825V54.1284L202.502 54.1855C200.713 54.2045 199.143 54.3949 197.791 54.7565C196.459 55.1182 195.421 55.6988 194.679 56.4983C193.936 57.2787 193.565 58.3256 193.565 59.6391C193.565 61.1428 194.089 62.323 195.136 63.1796C196.183 64.0171 197.486 64.4359 199.047 64.4359ZM232.601 69.1471C229.898 69.1471 227.49 68.557 225.377 67.3768C223.283 66.1776 221.637 64.4454 220.437 62.1802C219.238 59.896 218.638 57.1455 218.638 53.9285C218.638 50.8639 219.2 48.1799 220.323 45.8767C221.465 43.5544 223.074 41.746 225.149 40.4516C227.242 39.1382 229.726 38.4815 232.601 38.4815C234.904 38.4815 236.931 38.9384 238.682 39.852C240.434 40.7657 241.833 42.0316 242.88 43.6496C243.946 45.2675 244.583 47.1044 244.793 49.1602H238.882C238.73 48.2656 238.397 47.4185 237.883 46.619C237.369 45.8005 236.674 45.1438 235.799 44.6489C234.942 44.1349 233.895 43.878 232.658 43.878C230.431 43.878 228.632 44.6965 227.261 46.3335C225.891 47.9705 225.206 50.4832 225.206 53.8714C225.206 56.9932 225.853 59.4773 227.147 61.3237C228.461 63.1701 230.336 64.0933 232.772 64.0933C233.99 64.0933 235.037 63.8268 235.913 63.2938C236.788 62.7418 237.474 62.066 237.969 61.2666C238.483 60.4481 238.806 59.6295 238.939 58.811H244.707C244.536 60.8097 243.917 62.5895 242.851 64.1504C241.785 65.7113 240.377 66.939 238.625 67.8337C236.874 68.7093 234.866 69.1471 232.601 69.1471ZM251.218 68.576V39.0526H257.871V68.576H251.218ZM251.104 33.8845V27.3174H257.985V33.8845H251.104ZM274.364 69.1471C272.479 69.1471 270.785 68.8045 269.281 68.1192C267.796 67.4149 266.626 66.4156 265.769 65.1212C264.932 63.8078 264.513 62.2183 264.513 60.3529C264.513 57.0979 265.684 54.6423 268.025 52.9863C270.385 51.3302 274.135 50.4641 279.275 50.388L283.7 50.2738V48.2751C283.7 46.7142 283.234 45.496 282.301 44.6203C281.387 43.7257 279.96 43.2879 278.018 43.3069C276.572 43.326 275.258 43.6686 274.078 44.3348C272.898 44.982 272.117 46.0765 271.737 47.6184H265.826C265.94 45.6007 266.521 43.916 267.568 42.5645C268.634 41.194 270.09 40.1756 271.937 39.5094C273.783 38.8241 275.915 38.4815 278.332 38.4815C281.15 38.4815 283.443 38.8527 285.214 39.5951C286.984 40.3374 288.288 41.4129 289.125 42.8215C289.963 44.2111 290.382 45.8957 290.382 47.8753V68.576H284.528L283.957 63.2652C282.91 65.4924 281.568 67.0342 279.931 67.8908C278.313 68.7283 276.457 69.1471 274.364 69.1471ZM276.619 64.4359C277.476 64.4359 278.323 64.2836 279.16 63.9791C279.998 63.6555 280.75 63.2272 281.416 62.6942C282.101 62.1422 282.644 61.5331 283.044 60.8668C283.462 60.2006 283.681 59.5058 283.7 58.7825V54.1284L280.074 54.1855C278.285 54.2045 276.714 54.3949 275.363 54.7565C274.03 55.1182 272.993 55.6988 272.251 56.4983C271.508 57.2787 271.137 58.3256 271.137 59.6391C271.137 61.1428 271.661 62.323 272.707 63.1796C273.754 64.0171 275.058 64.4359 276.619 64.4359Z" fill="white"/>
<defs>
<clipPath id="clip0_33_964">
<rect width="93.2065" height="96.2255" fill="white"/>
</clipPath>
</defs>
</svg>
